<svg xmlns="http://www.w3.org/2000/svg" viewBox="0 0 16 16" shape-rendering="crispEdges">
  <rect x="0" y="0" width="1" height="1" fill="#058a85"/>
  <rect x="1" y="0" width="1" height="1" fill="#008b84"/>
  <rect x="2" y="0" width="1" height="1" fill="#4599a1"/>
  <rect x="3" y="0" width="1" height="1" fill="#98b9cf"/>
  <rect x="4" y="0" width="1" height="1" fill="#7599ae"/>
  <rect x="5" y="0" width="1" height="1" fill="#719eb6"/>
  <rect x="6" y="0" width="1" height="1" fill="#8dbeda"/>
  <rect x="7" y="0" width="1" height="1" fill="#7bb5cb"/>
  <rect x="8" y="0" width="1" height="1" fill="#7bbdcc"/>
  <rect x="9" y="0" width="1" height="1" fill="#b2d6ec"/>
  <rect x="10" y="0" width="1" height="1" fill="#a2cde4"/>
  <rect x="11" y="0" width="1" height="1" fill="#a0cde6"/>
  <rect x="12" y="0" width="1" height="1" fill="#68b1cc"/>
  <rect x="13" y="0" width="1" height="1" fill="#0b687a"/>
  <rect x="14" y="0" width="1" height="1" fill="#026675"/>
  <rect x="15" y="0" width="1" height="1" fill="#036979"/>
  <rect x="0" y="1" width="1" height="1" fill="#038e89"/>
  <rect x="1" y="1" width="1" height="1" fill="#02938d"/>
  <rect x="2" y="1" width="1" height="1" fill="#5a909d"/>
  <rect x="3" y="1" width="1" height="1" fill="#72858f"/>
  <rect x="4" y="1" width="1" height="1" fill="#5f7480"/>
  <rect x="5" y="1" width="1" height="1" fill="#94b1c5"/>
  <rect x="6" y="1" width="1" height="1" fill="#a8cbe3"/>
  <rect x="7" y="1" width="1" height="1" fill="#98bacf"/>
  <rect x="8" y="1" width="1" height="1" fill="#a4c2d6"/>
  <rect x="9" y="1" width="1" height="1" fill="#84aec4"/>
  <rect x="10" y="1" width="1" height="1" fill="#769eb3"/>
  <rect x="11" y="1" width="1" height="1" fill="#7cacc3"/>
  <rect x="12" y="1" width="1" height="1" fill="#8abdd8"/>
  <rect x="13" y="1" width="1" height="1" fill="#3f91a9"/>
  <rect x="14" y="1" width="1" height="1" fill="#006272"/>
  <rect x="15" y="1" width="1" height="1" fill="#056a7b"/>
  <rect x="0" y="2" width="1" height="1" fill="#018e88"/>
  <rect x="1" y="2" width="1" height="1" fill="#0c9d97"/>
  <rect x="2" y="2" width="1" height="1" fill="#416675"/>
  <rect x="3" y="2" width="1" height="1" fill="#26303f"/>
  <rect x="4" y="2" width="1" height="1" fill="#98b7ca"/>
  <rect x="5" y="2" width="1" height="1" fill="#b4d4ed"/>
  <rect x="6" y="2" width="1" height="1" fill="#adcde4"/>
  <rect x="7" y="2" width="1" height="1" fill="#8ca8bc"/>
  <rect x="8" y="2" width="1" height="1" fill="#71899a"/>
  <rect x="9" y="2" width="1" height="1" fill="#405b6b"/>
  <rect x="10" y="2" width="1" height="1" fill="#5c7687"/>
  <rect x="11" y="2" width="1" height="1" fill="#9bbdd1"/>
  <rect x="12" y="2" width="1" height="1" fill="#99bed4"/>
  <rect x="13" y="2" width="1" height="1" fill="#4994b0"/>
  <rect x="14" y="2" width="1" height="1" fill="#026f81"/>
  <rect x="15" y="2" width="1" height="1" fill="#04707f"/>
  <rect x="0" y="3" width="1" height="1" fill="#03928c"/>
  <rect x="1" y="3" width="1" height="1" fill="#049c93"/>
  <rect x="2" y="3" width="1" height="1" fill="#1a6d73"/>
  <rect x="3" y="3" width="1" height="1" fill="#062d36"/>
  <rect x="4" y="3" width="1" height="1" fill="#678d9e"/>
  <rect x="5" y="3" width="1" height="1" fill="#86b0c6"/>
  <rect x="6" y="3" width="1" height="1" fill="#7fa8c0"/>
  <rect x="7" y="3" width="1" height="1" fill="#52748c"/>
  <rect x="8" y="3" width="1" height="1" fill="#243a4f"/>
  <rect x="9" y="3" width="1" height="1" fill="#7b93a6"/>
  <rect x="10" y="3" width="1" height="1" fill="#c5e5fb"/>
  <rect x="11" y="3" width="1" height="1" fill="#b6d8ee"/>
  <rect x="12" y="3" width="1" height="1" fill="#a0c7de"/>
  <rect x="13" y="3" width="1" height="1" fill="#4589a8"/>
  <rect x="14" y="3" width="1" height="1" fill="#05818e"/>
  <rect x="15" y="3" width="1" height="1" fill="#02938b"/>
  <rect x="0" y="4" width="1" height="1" fill="#03978f"/>
  <rect x="1" y="4" width="1" height="1" fill="#049991"/>
  <rect x="2" y="4" width="1" height="1" fill="#007e7d"/>
  <rect x="3" y="4" width="1" height="1" fill="#298796"/>
  <rect x="4" y="4" width="1" height="1" fill="#7da9c3"/>
  <rect x="5" y="4" width="1" height="1" fill="#6999b2"/>
  <rect x="6" y="4" width="1" height="1" fill="#51839d"/>
  <rect x="7" y="4" width="1" height="1" fill="#2e586b"/>
  <rect x="8" y="4" width="1" height="1" fill="#01101a"/>
  <rect x="9" y="4" width="1" height="1" fill="#4c6777"/>
  <rect x="10" y="4" width="1" height="1" fill="#9bc7df"/>
  <rect x="11" y="4" width="1" height="1" fill="#7aacc6"/>
  <rect x="12" y="4" width="1" height="1" fill="#558fa9"/>
  <rect x="13" y="4" width="1" height="1" fill="#2e6986"/>
  <rect x="14" y="4" width="1" height="1" fill="#087382"/>
  <rect x="15" y="4" width="1" height="1" fill="#02a091"/>
  <rect x="0" y="5" width="1" height="1" fill="#039a91"/>
  <rect x="1" y="5" width="1" height="1" fill="#02a092"/>
  <rect x="2" y="5" width="1" height="1" fill="#0a8b92"/>
  <rect x="3" y="5" width="1" height="1" fill="#5598be"/>
  <rect x="4" y="5" width="1" height="1" fill="#7cadcc"/>
  <rect x="5" y="5" width="1" height="1" fill="#6d9dbd"/>
  <rect x="6" y="5" width="1" height="1" fill="#6597b6"/>
  <rect x="7" y="5" width="1" height="1" fill="#42748c"/>
  <rect x="8" y="5" width="1" height="1" fill="#052028"/>
  <rect x="9" y="5" width="1" height="1" fill="#153843"/>
  <rect x="10" y="5" width="1" height="1" fill="#3b6c7f"/>
  <rect x="11" y="5" width="1" height="1" fill="#316477"/>
  <rect x="12" y="5" width="1" height="1" fill="#1d566b"/>
  <rect x="13" y="5" width="1" height="1" fill="#19556a"/>
  <rect x="14" y="5" width="1" height="1" fill="#0d5773"/>
  <rect x="15" y="5" width="1" height="1" fill="#0e7dab"/>
  <rect x="0" y="6" width="1" height="1" fill="#029b90"/>
  <rect x="1" y="6" width="1" height="1" fill="#03a293"/>
  <rect x="2" y="6" width="1" height="1" fill="#248ab3"/>
  <rect x="3" y="6" width="1" height="1" fill="#3b78ac"/>
  <rect x="4" y="6" width="1" height="1" fill="#5f97b6"/>
  <rect x="5" y="6" width="1" height="1" fill="#72a4c4"/>
  <rect x="6" y="6" width="1" height="1" fill="#6396b4"/>
  <rect x="7" y="6" width="1" height="1" fill="#457995"/>
  <rect x="8" y="6" width="1" height="1" fill="#0c3547"/>
  <rect x="9" y="6" width="1" height="1" fill="#082b38"/>
  <rect x="10" y="6" width="1" height="1" fill="#11424d"/>
  <rect x="11" y="6" width="1" height="1" fill="#154453"/>
  <rect x="12" y="6" width="1" height="1" fill="#1c5165"/>
  <rect x="13" y="6" width="1" height="1" fill="#195265"/>
  <rect x="14" y="6" width="1" height="1" fill="#115b7a"/>
  <rect x="15" y="6" width="1" height="1" fill="#0b74ad"/>
  <rect x="0" y="7" width="1" height="1" fill="#019b8f"/>
  <rect x="1" y="7" width="1" height="1" fill="#099f9b"/>
  <rect x="2" y="7" width="1" height="1" fill="#1b73ac"/>
  <rect x="3" y="7" width="1" height="1" fill="#2a72a1"/>
  <rect x="4" y="7" width="1" height="1" fill="#4c8eb2"/>
  <rect x="5" y="7" width="1" height="1" fill="#5596bb"/>
  <rect x="6" y="7" width="1" height="1" fill="#5793b7"/>
  <rect x="7" y="7" width="1" height="1" fill="#4d8eb0"/>
  <rect x="8" y="7" width="1" height="1" fill="#17597a"/>
  <rect x="9" y="7" width="1" height="1" fill="#15566e"/>
  <rect x="10" y="7" width="1" height="1" fill="#275c69"/>
  <rect x="11" y="7" width="1" height="1" fill="#245768"/>
  <rect x="12" y="7" width="1" height="1" fill="#144a5b"/>
  <rect x="13" y="7" width="1" height="1" fill="#0c4a5e"/>
  <rect x="14" y="7" width="1" height="1" fill="#0e6486"/>
  <rect x="15" y="7" width="1" height="1" fill="#096194"/>
  <rect x="0" y="8" width="1" height="1" fill="#009c8f"/>
  <rect x="1" y="8" width="1" height="1" fill="#0f9d9e"/>
  <rect x="2" y="8" width="1" height="1" fill="#2172b3"/>
  <rect x="3" y="8" width="1" height="1" fill="#3f81ab"/>
  <rect x="4" y="8" width="1" height="1" fill="#478db5"/>
  <rect x="5" y="8" width="1" height="1" fill="#3c8ab5"/>
  <rect x="6" y="8" width="1" height="1" fill="#4b96c1"/>
  <rect x="7" y="8" width="1" height="1" fill="#539cc4"/>
  <rect x="8" y="8" width="1" height="1" fill="#4182a6"/>
  <rect x="9" y="8" width="1" height="1" fill="#1b799e"/>
  <rect x="10" y="8" width="1" height="1" fill="#21728d"/>
  <rect x="11" y="8" width="1" height="1" fill="#1a6178"/>
  <rect x="12" y="8" width="1" height="1" fill="#175d76"/>
  <rect x="13" y="8" width="1" height="1" fill="#15698c"/>
  <rect x="14" y="8" width="1" height="1" fill="#1976a0"/>
  <rect x="15" y="8" width="1" height="1" fill="#0a5e8f"/>
  <rect x="0" y="9" width="1" height="1" fill="#009d8d"/>
  <rect x="1" y="9" width="1" height="1" fill="#159ea5"/>
  <rect x="2" y="9" width="1" height="1" fill="#1a6eb6"/>
  <rect x="3" y="9" width="1" height="1" fill="#2e7299"/>
  <rect x="4" y="9" width="1" height="1" fill="#4085ae"/>
  <rect x="5" y="9" width="1" height="1" fill="#3782ae"/>
  <rect x="6" y="9" width="1" height="1" fill="#3687b6"/>
  <rect x="7" y="9" width="1" height="1" fill="#3a87b3"/>
  <rect x="8" y="9" width="1" height="1" fill="#317da5"/>
  <rect x="9" y="9" width="1" height="1" fill="#177097"/>
  <rect x="10" y="9" width="1" height="1" fill="#127398"/>
  <rect x="11" y="9" width="1" height="1" fill="#116d91"/>
  <rect x="12" y="9" width="1" height="1" fill="#177198"/>
  <rect x="13" y="9" width="1" height="1" fill="#1f729b"/>
  <rect x="14" y="9" width="1" height="1" fill="#16749e"/>
  <rect x="15" y="9" width="1" height="1" fill="#066191"/>
  <rect x="0" y="10" width="1" height="1" fill="#009c8a"/>
  <rect x="1" y="10" width="1" height="1" fill="#129aad"/>
  <rect x="2" y="10" width="1" height="1" fill="#0d5d9d"/>
  <rect x="3" y="10" width="1" height="1" fill="#26698b"/>
  <rect x="4" y="10" width="1" height="1" fill="#317ba4"/>
  <rect x="5" y="10" width="1" height="1" fill="#1e7098"/>
  <rect x="6" y="10" width="1" height="1" fill="#1e78a5"/>
  <rect x="7" y="10" width="1" height="1" fill="#2b80aa"/>
  <rect x="8" y="10" width="1" height="1" fill="#1d7095"/>
  <rect x="9" y="10" width="1" height="1" fill="#095c7e"/>
  <rect x="10" y="10" width="1" height="1" fill="#0a6080"/>
  <rect x="11" y="10" width="1" height="1" fill="#096689"/>
  <rect x="12" y="10" width="1" height="1" fill="#0a6286"/>
  <rect x="13" y="10" width="1" height="1" fill="#106589"/>
  <rect x="14" y="10" width="1" height="1" fill="#1076a3"/>
  <rect x="15" y="10" width="1" height="1" fill="#0b6291"/>
  <rect x="0" y="11" width="1" height="1" fill="#019e8a"/>
  <rect x="1" y="11" width="1" height="1" fill="#078ba7"/>
  <rect x="2" y="11" width="1" height="1" fill="#05457e"/>
  <rect x="3" y="11" width="1" height="1" fill="#257197"/>
  <rect x="4" y="11" width="1" height="1" fill="#1f77a1"/>
  <rect x="5" y="11" width="1" height="1" fill="#116a93"/>
  <rect x="6" y="11" width="1" height="1" fill="#116c95"/>
  <rect x="7" y="11" width="1" height="1" fill="#2b7ea8"/>
  <rect x="8" y="11" width="1" height="1" fill="#126188"/>
  <rect x="9" y="11" width="1" height="1" fill="#055a7b"/>
  <rect x="10" y="11" width="1" height="1" fill="#095b76"/>
  <rect x="11" y="11" width="1" height="1" fill="#055069"/>
  <rect x="12" y="11" width="1" height="1" fill="#06526e"/>
  <rect x="13" y="11" width="1" height="1" fill="#076387"/>
  <rect x="14" y="11" width="1" height="1" fill="#0e709e"/>
  <rect x="15" y="11" width="1" height="1" fill="#0b5988"/>
  <rect x="0" y="12" width="1" height="1" fill="#039d8a"/>
  <rect x="1" y="12" width="1" height="1" fill="#03849e"/>
  <rect x="2" y="12" width="1" height="1" fill="#043561"/>
  <rect x="3" y="12" width="1" height="1" fill="#247098"/>
  <rect x="4" y="12" width="1" height="1" fill="#1b749d"/>
  <rect x="5" y="12" width="1" height="1" fill="#0c6083"/>
  <rect x="6" y="12" width="1" height="1" fill="#0e6283"/>
  <rect x="7" y="12" width="1" height="1" fill="#1e759e"/>
  <rect x="8" y="12" width="1" height="1" fill="#043b5b"/>
  <rect x="9" y="12" width="1" height="1" fill="#0a3750"/>
  <rect x="10" y="12" width="1" height="1" fill="#07536b"/>
  <rect x="11" y="12" width="1" height="1" fill="#044c63"/>
  <rect x="12" y="12" width="1" height="1" fill="#065773"/>
  <rect x="13" y="12" width="1" height="1" fill="#0c72a0"/>
  <rect x="14" y="12" width="1" height="1" fill="#074d78"/>
  <rect x="15" y="12" width="1" height="1" fill="#033656"/>
  <rect x="0" y="13" width="1" height="1" fill="#039987"/>
  <rect x="1" y="13" width="1" height="1" fill="#047f8b"/>
  <rect x="2" y="13" width="1" height="1" fill="#083455"/>
  <rect x="3" y="13" width="1" height="1" fill="#135975"/>
  <rect x="4" y="13" width="1" height="1" fill="#145d7b"/>
  <rect x="5" y="13" width="1" height="1" fill="#095d7f"/>
  <rect x="6" y="13" width="1" height="1" fill="#0f6181"/>
  <rect x="7" y="13" width="1" height="1" fill="#11526d"/>
  <rect x="8" y="13" width="1" height="1" fill="#053343"/>
  <rect x="9" y="13" width="1" height="1" fill="#030c14"/>
  <rect x="10" y="13" width="1" height="1" fill="#062a37"/>
  <rect x="11" y="13" width="1" height="1" fill="#075b76"/>
  <rect x="12" y="13" width="1" height="1" fill="#056284"/>
  <rect x="13" y="13" width="1" height="1" fill="#0a516f"/>
  <rect x="14" y="13" width="1" height="1" fill="#051531"/>
  <rect x="15" y="13" width="1" height="1" fill="#06545b"/>
  <rect x="0" y="14" width="1" height="1" fill="#019484"/>
  <rect x="1" y="14" width="1" height="1" fill="#03787a"/>
  <rect x="2" y="14" width="1" height="1" fill="#0b3655"/>
  <rect x="3" y="14" width="1" height="1" fill="#04445a"/>
  <rect x="4" y="14" width="1" height="1" fill="#125a74"/>
  <rect x="5" y="14" width="1" height="1" fill="#0e698d"/>
  <rect x="6" y="14" width="1" height="1" fill="#085068"/>
  <rect x="7" y="14" width="1" height="1" fill="#02283b"/>
  <rect x="8" y="14" width="1" height="1" fill="#046867"/>
  <rect x="9" y="14" width="1" height="1" fill="#01272a"/>
  <rect x="10" y="14" width="1" height="1" fill="#00050c"/>
  <rect x="11" y="14" width="1" height="1" fill="#002e3d"/>
  <rect x="12" y="14" width="1" height="1" fill="#105975"/>
  <rect x="13" y="14" width="1" height="1" fill="#00374c"/>
  <rect x="14" y="14" width="1" height="1" fill="#001630"/>
  <rect x="15" y="14" width="1" height="1" fill="#019074"/>
  <rect x="0" y="15" width="1" height="1" fill="#17a58f"/>
  <rect x="1" y="15" width="1" height="1" fill="#037d73"/>
  <rect x="2" y="15" width="1" height="1" fill="#0c3246"/>
  <rect x="3" y="15" width="1" height="1" fill="#1f4b5f"/>
  <rect x="4" y="15" width="1" height="1" fill="#0d3240"/>
  <rect x="5" y="15" width="1" height="1" fill="#073848"/>
  <rect x="6" y="15" width="1" height="1" fill="#13313f"/>
  <rect x="7" y="15" width="1" height="1" fill="#133f4f"/>
  <rect x="8" y="15" width="1" height="1" fill="#02887c"/>
  <rect x="9" y="15" width="1" height="1" fill="#0a3335"/>
  <rect x="10" y="15" width="1" height="1" fill="#161113"/>
  <rect x="11" y="15" width="1" height="1" fill="#413f44"/>
  <rect x="12" y="15" width="1" height="1" fill="#788da1"/>
  <rect x="13" y="15" width="1" height="1" fill="#414752"/>
  <rect x="14" y="15" width="1" height="1" fill="#384b4a"/>
  <rect x="15" y="15" width="1" height="1" fill="#449f7d"/>
</svg>